<svg id="Layer_1" xmlns="http://www.w3.org/2000/svg" viewBox="0 0 940 850"><style>.st0{opacity:0.5;fill:#5BC06F;enable-background:new ;} .st1{opacity:0.5;fill:#4EB56A;enable-background:new ;} .st2{opacity:0.5;} .st3{fill:#5BC06F;} .st4{fill:#4EB56A;}</style><path class="st0" d="M708.9 223.7c-1.4-9.6-24-17.2-51.6-17.2s-50.2 7.6-51.6 17.2h-.1v72.9c0 9.5 23.1 17.2 51.6 17.2s51.6-7.7 51.6-17.2l.1-72.9c.1 0 .1 0 0 0zm-51.5-9.6c27.2 0 44 7.7 43.9 10.5.1 2.9-16.7 10.5-43.9 10.5s-44-7.7-43.9-10.5c-.1-2.8 16.7-10.5 43.9-10.5z"/><path class="st1" d="M668 235.9c-10-10-26.2-10-36.1 0-10 10-10 26.2 0 36.1 8.4 8.4 21.2 9.6 31 3.9l16.4 16.4s4.5 4.5 9 0 0-9 0-9l-16.4-16.4c5.7-9.8 4.5-22.6-3.9-31zm-6.8 29.3c-6.2 6.2-16.3 6.2-22.6 0-6.2-6.2-6.2-16.4 0-22.6 6.2-6.2 16.4-6.2 22.6 0 6.3 6.3 6.3 16.4 0 22.6zM91.3 414c0 .1.1.1.1.1l-.1-.1z"/><path class="st1" d="M160.7 406.9c-1.2-6-7.6-11-20.8-16.6-8.6-3.6-17.1-6.1-17.4-6.2l-1-.2h-25l-1 .2c-.3.1-8.6 2.5-17.1 6.1-13.1 5.5-19.4 10.6-20.5 16.6 0 .2-.1.5-.1.7 0 .4-.1.8-.1 1.2 0 2.5 0 8.2 22.6 34.7 5.3 6.3 11 12.5 15.5 17.1 7.8 8 10.4 9.4 13.5 9.4 3.2 0 5.7-1.4 13.5-9.4 4.5-4.6 10.2-10.8 15.5-17 22.6-26.3 22.6-32.1 22.6-34.6 0-.7-.1-1.3-.2-2z"/><path class="st1" d="M160.7 406.9c.1.3.1.6.1.9 0-.3-.1-.6-.1-.9z"/><path class="st0" d="M88.8 412.2c0 .1.1.1.1.1l-.1-.1z"/><path class="st0" d="M167.8 404.2c0-.1 0-.1 0 0-1.4-6.8-8.7-12.6-23.7-18.9-9.8-4.1-19.4-6.9-19.8-7l-1.1-.2H94.5l-1.1.2c-.4.1-9.8 2.9-19.4 6.9-14.9 6.3-22.1 12-23.3 18.8 0 .2-.1.5-.1.8 0 .4-.1.9-.1 1.3 0 2.8 0 9.4 25.7 39.5 6.1 7.1 12.5 14.2 17.6 19.5 8.9 9.1 11.8 10.7 15.4 10.7s6.5-1.6 15.4-10.6c5.1-5.2 11.6-12.2 17.6-19.3 25.7-30 25.7-36.5 25.7-39.3.1-.9 0-1.7-.1-2.4zm-117.1 0s0 .1 0 0c0 .1 0 0 0 0zm78.9 8.6l-20.3 55-20.3-55-30.5-6.8v-.4c.9-8.4 30.7-18 36.3-19.8-.7 2.4-7.5 25.2-5.9 26.5h40.7c.9-2.5-6.1-24-6.8-26.4 5.6 1.8 35.5 11.5 37.1 19.8v.3l-30.3 6.8z"/><path class="st0" d="M167.8 404.2c.1.3.1.7.2 1.1-.1-.4-.2-.8-.2-1.1zM299.3 142h17.4v10.2h-17.4V142zm-30.6-89.4h17.4v10.2h-17.4V52.6zm0 89.4h17.4v10.2h-17.4V142zm-41.5-48.7h10.2v18.2h-10.2V93.3zm102.6-30.6h18.3v17.4h10.2V58.4c0-3.2-2.6-5.8-5.8-5.8h-22.6v10.1h-.1zM255.7 142h-18.3v-17.5h-10.2v21.8c0 3.2 2.6 5.8 5.8 5.8h22.6l.1-10.1zm-18.3-61.8V62.7h18.3V52.6H233c-3.2 0-5.8 2.6-5.8 5.8v21.8h10.2zm61.9-27.6h17.4v10.2h-17.4V52.6zm48.8 71.9V142h-18.3v10.2h22.6c3.2 0 5.8-2.6 5.8-5.8v-21.9h-10.1zm0-31.2h10.2v18.2h-10.2V93.3z"/><circle class="st0" cx="292.7" cy="101.6" r="27.5"/><path class="st1" d="M292.7 84c9.8 0 17.7 7.9 17.7 17.7s-7.9 17.7-17.7 17.7V84zm418 322.4l-.2-.2c-.4-1.5-1.4-2.7-2.8-3.3l-49.4-33.7c-.5-.4-1.1-.5-1.7-.5-.6 0-1.2.2-1.7.5l-49.4 33.7c-1.4.6-2.4 1.8-2.8 3.3l-.2.2v59.8c0 2.7 2.2 4.9 4.9 4.9h98.3c2.7 0 4.9-2.2 4.9-4.9v-59.3c.1-.2.1-.3.1-.5z"/><path class="st0" d="M681.7 429.3c2 0 3.7-1.7 3.7-3.7s-1.7-3.7-3.7-3.7h-4.1v-14.5h4.1c2 0 3.7-1.7 3.7-3.7s-1.7-3.7-3.7-3.7h-4.1v-6.2c0-2-1.7-3.7-3.7-3.7s-3.7 1.7-3.7 3.7v6.2H643v-6.2c0-2-1.7-3.7-3.7-3.7s-3.7 1.7-3.7 3.7v6.2h-4.1c-2 0-3.7 1.7-3.7 3.7s1.7 3.7 3.7 3.7h4.1v14.5h-4.1c-2 0-3.7 1.7-3.7 3.7s1.7 3.7 3.7 3.7h4.1v14.5h-4.1c-2 0-3.7 1.7-3.7 3.7s1.7 3.7 3.7 3.7h4.9c.7.9 1.7 1.4 2.9 1.4s2.2-.6 2.9-1.4H671c.7.9 1.7 1.4 2.9 1.4s2.2-.6 2.9-1.4h4.9c2 0 3.7-1.7 3.7-3.7s-1.7-3.7-3.7-3.7h-4.1v-14.5h4.1zM643 407.4h27.2v14.5H643v-14.5zm27.2 36.4H643v-14.5h27.2v14.5z"/><path class="st0" d="M656.6 449.4c-.6 0-1.2-.2-1.7-.5l-52.4-35.7v56.6c0 2.7 2.2 4.9 4.9 4.9h98.3c2.7 0 4.9-2.2 4.9-4.9v-56.6l-52.4 35.7c-.4.4-1 .5-1.6.5z"/><circle class="st0" cx="468.7" cy="430.7" r="48"/><path class="st1" d="M468.7 478.9c11.2 0 21.5-3.8 29.6-10.3l-42.6-53.5c-1.1-1.3-2.7-2.1-4.4-2.1s-3.3.8-4.4 2.1l-24 30.1c6.1 19.6 24.3 33.7 45.8 33.7z"/><path class="st1" d="M500 429.8c-1.1-1.4-2.7-2.2-4.5-2.2s-3.4.8-4.5 2.2L479.5 445l18.9 23.7c6.8-5.4 12.2-12.5 15.3-20.8L500 429.8z"/><circle class="st1" cx="505.8" cy="392" r="25.9"/><path class="st0" d="M505.2 397.3c-1.2 0-2-.9-2.1-1.9l-.4-2.7c-.2-1.3.6-2.2 1.8-2.4 3.5-.4 5-1.5 5-3.5v-.1c0-1.8-1.3-2.8-3.6-2.8-1.7 0-3.2.5-4.6 1.6-.5.4-1.1.6-1.8.6-1.5 0-2.8-1.3-2.8-2.8 0-.8.3-1.5 1-2.1 2.1-1.7 4.8-2.9 8.3-2.9 5.7 0 9.6 2.9 9.6 8.2v.1c0 5-3.5 7.1-7.8 8l-.1.7c-.2 1-1 1.9-2.1 1.9l-.4.1zm0 2.6c2 0 3.5 1.5 3.5 3.4v.1c0 1.9-1.5 3.4-3.5 3.4s-3.5-1.5-3.5-3.4v-.1c0-1.9 1.5-3.4 3.5-3.4zm9.2-120.4c-3.9-3.9-18.2-8.3-24.7-10.1-1-1.6-2-3.9-2.4-6.6 1.9-2 3.3-4.6 5.1-7.5 3.8-6.4 5.5-13.6 5.5-18.7 0-10.2-1.3-28.9-21.7-28.9s-21.3 18.7-21.3 28.9c0 5.1 2.2 13 6.1 19.3 1.6 2.6 2.7 4.8 4.2 6.6-.6 3.1-1.9 5.6-3.2 7.3-7.1 2.5-21.3 7.7-25.1 11.5-5.1 5.1-9 12.6-9 17.7H526c-.2-5-6.5-14.4-11.6-19.5z"/><path class="st1" d="M506.7 296.4l-28.6-29.7c-.5-.5-1.1-.7-1.7-.7-.3 0-.6.1-.9.2-.9.4-1.5 1.2-1.5 2.2v42.8c0 1 .6 1.9 1.5 2.2.3.1.6.2.9.2.7 0 1.3-.3 1.8-.8l8.1-8.9 5.9 14.8c.6 1.6 2.2 2.6 3.9 2.6.5 0 1-.1 1.5-.3 2.1-.8 3.2-3.3 2.3-5.4l-6-15.1h11c1 0 1.8-.6 2.2-1.4.4-1 .2-2-.4-2.7zm25.2-88.9c-.7 0-1.4.1-2 .3.2-.6.3-1.3.3-2 0-3.7-3-6.8-6.8-6.8-3.7 0-6.8 3-6.8 6.8 0 .7.1 1.4.3 2-.6-.2-1.3-.3-2-.3-3.7 0-6.8 3-6.8 6.8 0 3.7 3 6.8 6.8 6.8.7 0 1.4-.1 2-.3-.2.6-.3 1.3-.3 2 0 3.7 3 6.8 6.8 6.8 3.7 0 6.8-3 6.8-6.8 0-.7-.1-1.4-.3-2 .6.2 1.3.3 2 .3 3.7 0 6.8-3 6.8-6.8-.1-3.8-3.1-6.8-6.8-6.8zm-91.6 32.9c-.3-.4-.7-.5-2.6-.7-1-.1-2.3-.3-3.9-.4-1.9-.2-3.7-.3-4.7-.4-.3-.9-.9-2.4-1.5-4-1.6-4.1-2.5-5.4-2.9-6-.4-.7-1-.7-1.2-.7h-.2c-.2 0-.8.1-1.2.7-.5.6-1.3 1.9-2.9 6l-1.5 4c-1 .1-2.9.2-4.7.4-1.6.1-2.9.3-3.9.4-1.9.2-2.3.4-2.6.7-.3.3-.4.7-.4 1.1.1.7.4 1.7 4.4 5.1 1.3 1.1 2.6 2.1 3.3 2.7-.3 1-.9 3-1.5 4.9-.5 1.7-.9 3-1.2 4-.5 1.9-.6 2.6 0 3.1.2.2.5.4 1.1.4.4 0 1.5 0 6.5-2.7 1.9-1 3.7-2.1 4.7-2.6 1 .6 2.8 1.6 4.7 2.6 5 2.7 6 2.7 6.5 2.7.6 0 .9-.2 1.1-.4.6-.6.4-1.2 0-3.1-.3-1-.6-2.4-1.2-4-.6-1.9-1.2-3.9-1.5-4.9.7-.6 2-1.6 3.3-2.7 4-3.4 4.4-4.4 4.4-5.1-.1-.4-.2-.8-.4-1.1z"/><path class="st0" d="M693.7 799.7c0 3.5-2.8 6.3-6.3 6.3h-79.8c-3.5 0-6.3-2.8-6.3-6.3v-97c0-3.5 2.8-6.3 6.3-6.3h59.1l3.4 22.9 23.7 4.1v76.3h-.1z"/><path class="st1" d="M693.7 723.4h-17.5c-5.3 0-9.6-4.3-9.6-9.6v-17.2l27.1 26.8zm187.6 79.3c0 3-2.5 5.5-5.5 5.5h-68c-3 0-5.5-2.5-5.5-5.5V745c0-3 2.5-5.5 5.5-5.5h68c3 0 5.5 2.5 5.5 5.5v57.7z"/><path class="st0" d="M849.3 759.4H816c-1.5 0-2.7-1.2-2.7-2.7s1.2-2.7 2.7-2.7h33.3c1.5 0 2.7 1.2 2.7 2.7s-1.2 2.7-2.7 2.7zm16.2 3.4c-.4 0-.9-.2-1.2-.5l-4.7-4.2c-.8-.7-.8-1.8-.1-2.6s1.8-.8 2.6-.1l3.2 2.8 5.5-7.6c.6-.8 1.8-1 2.6-.4s1 1.8.4 2.6L867 762c-.3.4-.8.7-1.3.7-.1.1-.2.1-.2.1zm-16.2 13.8H816c-1.5 0-2.7-1.2-2.7-2.7s1.2-2.7 2.7-2.7h33.3c1.5 0 2.7 1.2 2.7 2.7s-1.2 2.7-2.7 2.7zm16.2 2.7c-.4 0-.9-.2-1.2-.5l-4.7-4.2c-.8-.7-.8-1.8-.1-2.6s1.8-.8 2.6-.1l3.2 2.8 5.5-7.6c.6-.8 1.8-1 2.6-.4s1 1.8.4 2.6l-6.7 9.2c-.3.4-.8.7-1.3.7-.2.1-.3.1-.3.1zm-16.2 14.5H816c-1.5 0-2.7-1.2-2.7-2.7s1.2-2.7 2.7-2.7h33.3c1.5 0 2.7 1.2 2.7 2.7s-1.2 2.7-2.7 2.7z"/><circle class="st0" cx="804.6" cy="733.7" r="39.4"/><path class="st1" d="M821.2 745.3c-1.7-1.7-8-3.7-10.9-4.5-.5-.7-.9-1.7-1.1-2.9.9-.9 1.5-2 2.2-3.3 1.7-2.8 2.4-6.1 2.4-8.3 0-4.5-.6-12.9-9.6-12.9s-9.4 8.3-9.4 12.9c0 2.3 1 5.8 2.7 8.6.7 1.2 1.2 2.1 1.8 2.9-.3 1.4-.8 2.5-1.4 3.3-3.2 1.1-9.4 3.4-11.1 5.1-2.2 2.3-4 5.6-4 7.9h43.3c.2-2.3-2.7-6.5-4.9-8.8z"/><g class="st2"><path class="st3" d="M160.2 65v79.1h-102V65h102zm2.2-25H56.1c-4.7 0-8.6 3.8-8.6 8.6v97.7c0 4.7 3.8 8.6 8.6 8.6h106.2c4.7 0 8.6-3.8 8.6-8.6V48.6c0-4.8-3.8-8.6-8.5-8.6z"/><circle class="st4" cx="62.8" cy="52.6" r="4.3"/><circle class="st4" cx="74.7" cy="52.6" r="4.3"/><circle class="st4" cx="87" cy="52.6" r="4.3"/><path class="st4" d="M58.3 65h102v79.1h-102V65z"/><path class="st3" d="M99.2 125.7c-1.4 0-2.8-.5-3.8-1.6l-17.1-17.2c-1-1-1.6-2.4-1.5-3.8 0-1.4.6-2.8 1.6-3.8l17.1-16.8c2.1-2.1 5.5-2 7.6.1 2.1 2.1 2 5.5-.1 7.6l-13.3 13 13.3 13.4c2.1 2.1 2.1 5.5 0 7.6-1.1 1-2.4 1.5-3.8 1.5zm20.1 0c-1.4 0-2.8-.5-3.8-1.6-2.1-2.1-2-5.5.1-7.6l13.3-13-13.4-13.4c-2.1-2.1-2.1-5.5 0-7.6s5.5-2.1 7.6 0l17.1 17.3c1 1 1.6 2.4 1.5 3.8 0 1.4-.6 2.8-1.6 3.8L123 124.2c-1 1-2.3 1.5-3.7 1.5z"/></g><g class="st2"><path class="st4" d="M647.5 638.7c-2.4 0-4.4-2-4.4-4.4v-35.8c0-2.4 2-4.4 4.4-4.4s4.4 2 4.4 4.4v35.8c0 2.4-2 4.4-4.4 4.4z"/><path class="st3" d="M702.1 615.2H592.8v-74.8c0-4.2 3.4-7.5 7.5-7.5h94.3c4.2 0 7.5 3.4 7.5 7.5v74.8z"/><path class="st4" d="M592.8 554.2v-13.8c0-4.2 3.4-7.5 7.5-7.5h94.2c4.2 0 7.5 3.4 7.5 7.5v13.8H592.8z"/><path class="st4" d="M647.5 523.5c2.4 0 4.4 2 4.4 4.4 0 2.4-2 4.4-4.4 4.4s-4.4-2-4.4-4.4c0-2.5 1.9-4.4 4.4-4.4m0-6.3c-5.9 0-10.7 4.8-10.7 10.7s4.8 10.7 10.7 10.7 10.7-4.8 10.7-10.7c-.1-5.9-4.8-10.7-10.7-10.7z"/><circle class="st4" cx="610.2" cy="571.8" r="6.9"/><path class="st4" d="M682.5 575h-53.4c-1.7 0-3.1-1.4-3.1-3.1s1.4-3.1 3.1-3.1h53.4c1.7 0 3.1 1.4 3.1 3.1s-1.4 3.1-3.1 3.1z"/><circle class="st4" cx="610.2" cy="593.2" r="6.9"/><path class="st4" d="M669.3 596.3h-40.2c-1.7 0-3.1-1.4-3.1-3.1 0-1.7 1.4-3.1 3.1-3.1h40.2c1.7 0 3.1 1.4 3.1 3.1 0 1.7-1.4 3.1-3.1 3.1zm-6.1 43h-31.4c-2.1 0-3.8-1.7-3.8-3.8s1.7-3.8 3.8-3.8h31.4c2.1 0 3.8 1.7 3.8 3.8s-1.8 3.8-3.8 3.8zm38.9-20.4H592.8c-1.7 0-3.1-1.4-3.1-3.1 0-1.7 1.4-3.1 3.1-3.1h109.4c1.7 0 3.1 1.4 3.1 3.1 0 1.7-1.4 3.1-3.2 3.1z"/></g><g class="st2"><path class="st3" d="M338.8 383.8h-93.9c-4.5 0-8.1 3.6-8.1 8.1v67.6c0 4.5 3.6 8.1 8.1 8.1H298l13.6 15.2c.4.4.9.6 1.5.6s1.1-.2 1.5-.6l13.8-15.2h10.3c4.5 0 8.1-3.6 8.1-8.1v-67.6c.1-4.5-3.5-8.1-8-8.1z"/><path class="st4" d="M287.1 409.1h-32.4c-2.2 0-4.1-1.8-4.1-4.1s1.8-4.1 4.1-4.1h32.4c2.2 0 4.1 1.8 4.1 4.1s-1.8 4.1-4.1 4.1zm31.1 18.9h-63.5c-2.2 0-4.1-1.8-4.1-4.1s1.8-4.1 4.1-4.1h63.5c2.2 0 4.1 1.8 4.1 4.1s-1.9 4.1-4.1 4.1zm-18.9 18.9h-44.6c-2.2 0-4.1-1.8-4.1-4.1s1.8-4.1 4.1-4.1h44.6c2.2 0 4.1 1.8 4.1 4.1s-1.9 4.1-4.1 4.1z"/><circle class="st4" cx="340.1" cy="387.2" r="13.8"/></g><g class="st2"><path class="st4" d="M595.2 93.4h122.7v11.1H595.2V93.4zm89.1-18.7h-8.6V62.5h-38c-.6 0-1.4.2-1.5.4 0 0-.1.1-.1.5v11.3h-8.6V63.4c0-2.7.9-5 2.7-6.7 2.9-2.8 6.8-2.9 7.7-2.9h38.6c3 0 4.8 1.4 5.8 2.5 2.3 2.6 2.2 6 2.1 7.3v11.1h-.1z"/><path class="st3" d="M717.9 95.3V81.6c0-7.2-7.2-7.2-7.2-7.2H602.4s-7.2 0-7.2 7.2v13.7h122.7zm-122.7 5.6v38.7s0 7.2 7.2 7.2h108.3s7.2 0 7.2-7.2v-38.7H595.2z"/><path class="st4" d="M621.9 104.6c0 2.4-1.9 4.3-4.3 4.3H614c-2.4 0-4.3-1.9-4.3-4.3V93.1c0-2.4 1.9-4.3 4.3-4.3h3.6c2.4 0 4.3 1.9 4.3 4.3v11.5zm70.8 0c0 2.4 1.9 4.3 4.3 4.3h3.6c2.4 0 4.3-1.9 4.3-4.3V93.1c0-2.4-1.9-4.3-4.3-4.3H697c-2.4 0-4.3 1.9-4.3 4.3v11.5z"/></g><g class="st2"><path class="st3" d="M536.5 65.1c1.4 0 2.5 1.1 2.5 2.5v27.6c0 1.4-1.1 2.5-2.5 2.5H415.9c-1.4 0-2.5-1.1-2.5-2.5V67.6c0-1.4 1.1-2.5 2.5-2.5h120.6z"/><circle class="st4" cx="430.2" cy="82.1" r="4.8"/><circle class="st4" cx="445.2" cy="82.1" r="4.8"/><circle class="st4" cx="460.1" cy="82.1" r="4.8"/><circle class="st4" cx="475.1" cy="82.1" r="4.8"/><path class="st4" d="M520.2 91.9c-.9 0-1.7-.4-2.3-1l-6.1-6.8c-1.1-1.3-1-3.2.2-4.3 1.3-1.1 3.2-1 4.3.2l3.6 4 8-11.2c1-1.4 2.9-1.7 4.3-.7s1.7 2.9.7 4.3l-10.2 14.3c-.5.8-1.4 1.2-2.3 1.3-.1-.1-.2-.1-.2-.1z"/><path class="st3" d="M536.5 108.6c1.4 0 2.5 1.1 2.5 2.5v27.6c0 1.4-1.1 2.5-2.5 2.5H415.9c-1.4 0-2.5-1.1-2.5-2.5v-27.6c0-1.4 1.1-2.5 2.5-2.5h120.6z"/><circle class="st4" cx="430.2" cy="125.6" r="4.8"/><circle class="st4" cx="445.2" cy="125.6" r="4.8"/><circle class="st4" cx="460.1" cy="125.6" r="4.8"/><path class="st4" d="M526.2 125.3l5-5c1.2-1.2 1.2-3.1 0-4.3-1.2-1.2-3.1-1.2-4.3 0l-5 5-5-5c-1.2-1.2-3.1-1.2-4.3 0s-1.2 3.1 0 4.3l5 5-5 5c-1.2 1.2-1.2 3.1 0 4.3.6.6 1.4.9 2.2.9.8 0 1.6-.3 2.2-.9l5-5 5 5c.6.6 1.4.9 2.2.9.8 0 1.6-.3 2.2-.9 1.2-1.2 1.2-3.1 0-4.3l-5.2-5z"/></g><g class="st2"><path class="st3" d="M784 555.2c0-5.1 5.1-5.1 5.1-5.1h12.4s5.1 0 5.1 5.1V567c0 5.1-5.1 5.1-5.1 5.1h-12.4c-5.1 0-5.1-5.1-5.1-5.1v-11.8z"/><path class="st4" d="M784 588.5c0-5.1 5.1-5.1 5.1-5.1h12.4s5.1 0 5.1 5.1v11.8c0 5.1-5.1 5.1-5.1 5.1h-12.4c-5.1 0-5.1-5.1-5.1-5.1v-11.8z"/><path class="st3" d="M784 621.8c0-5.1 5.1-5.1 5.1-5.1h12.4s5.1 0 5.1 5.1v11.8c0 5.1-5.1 5.1-5.1 5.1h-12.4c-5.1 0-5.1-5.1-5.1-5.1v-11.8zm33.9-66.6c0-5.1 5.1-5.1 5.1-5.1h12.4s5.1 0 5.1 5.1V567c0 5.1-5.1 5.1-5.1 5.1H823c-5.1 0-5.1-5.1-5.1-5.1v-11.8z"/><path class="st4" d="M817.9 588.5c0-5.1 5.1-5.1 5.1-5.1h12.4s5.1 0 5.1 5.1v11.8c0 5.1-5.1 5.1-5.1 5.1H823c-5.1 0-5.1-5.1-5.1-5.1v-11.8z"/><path class="st3" d="M817.9 621.8c0-5.1 5.1-5.1 5.1-5.1h12.4s5.1 0 5.1 5.1v11.8c0 5.1-5.1 5.1-5.1 5.1H823c-5.1 0-5.1-5.1-5.1-5.1v-11.8zm34.2-66.6c0-5.1 5.1-5.1 5.1-5.1h12.4s5.1 0 5.1 5.1V567c0 5.1-5.1 5.1-5.1 5.1h-12.4c-5.1 0-5.1-5.1-5.1-5.1v-11.8z"/><path class="st4" d="M852.1 588.5c0-5.1 5.1-5.1 5.1-5.1h12.4s5.1 0 5.1 5.1v11.8c0 5.1-5.1 5.1-5.1 5.1h-12.4c-5.1 0-5.1-5.1-5.1-5.1v-11.8z"/><path class="st3" d="M852.1 621.8c0-5.1 5.1-5.1 5.1-5.1h12.4s5.1 0 5.1 5.1v11.8c0 5.1-5.1 5.1-5.1 5.1h-12.4c-5.1 0-5.1-5.1-5.1-5.1v-11.8z"/></g><path class="st1" d="M498 559.3c0-17.9-14.4-32.4-32.3-32.4s-32.6 14.5-32.6 32.4c0 16 11.5 29.3 26.6 31.9v8.3h-6.1s-4.5 0-4.5 5.6 4.5 5.6 4.5 5.6h6.1v6.7h-6.1s-4.5 0-4.5 5.6 4.5 5.6 4.5 5.6h6.1v1.1c0 4.5 2.2 7.8 7.8 7.8s7.8-3.4 7.8-7.8v-39.6c13.4-4.2 22.7-16.4 22.7-30.8zm-41.1-11.1c0-4.9 4-8.9 8.9-8.9s8.9 4 8.9 8.9-4 8.9-8.9 8.9-8.9-4-8.9-8.9z"/><g class="st2"><path class="st3" d="M530.6 715.3c-.8-1.1-2.1-1.7-3.4-1.7H420.1l-3-8c-.4-1-1.1-1.8-2-2.3l-9.2-4.9c-2.1-1.1-4.7-.3-5.8 1.7-1.1 2.1-.3 4.7 1.7 5.8l7.8 4.2 3.5 9.3 17.6 50.9c-2.3 3.7-6.3 11.7-3 18.3 2.6 5.2 8.8 7.9 18.4 7.9h51.4c2.4 0 4.3-1.9 4.3-4.3s-1.9-4.3-4.3-4.3h-51.4c-5.8 0-9.7-1.1-10.7-3.1-1.1-2.2.5-6.5 2.3-9.5h75.2c1.9 0 3.6-1.3 4.2-3.2l14.3-53c.3-1.4 0-2.8-.8-3.8zm-13.8 24.8h-14v-17.9h18.8l-4.8 17.9zm-84.5 8.6h11v17.9h-4.8l-6.2-17.9zm19.6 0h16.9v17.9h-16.9v-17.9zm0-8.6v-17.9h16.9v17.9h-16.9zm25.6 8.6h16.7v17.9h-16.7v-17.9zm0-8.6v-17.9h16.7v17.9h-16.7zm-34.2-17.9v17.9h-14l-6.2-17.9h20.2zm66.3 44.4h-6.9v-17.9h11.7l-4.8 17.9z"/><circle class="st4" cx="496.1" cy="794.4" r="10.2"/><circle class="st4" cx="447.5" cy="794.4" r="10.2"/></g><path class="st0" d="M835.4 46.8c-13.6 0-32.7 10.2-32.7 32.7 0 19.6 7.9 29.1 13.6 36 3 3.6 5.1 3 5.1 5.9v8h28v-8c0-2.9 2.1-2.4 5.1-5.9 5.8-6.9 13.6-16.4 13.6-36 .1-22.5-19.1-32.7-32.7-32.7z"/><path class="st1" d="M843 106.8c-.7-.1-2.2-1.1-3.8-2.7 3.6-4.7 6.5-10.9 6.5-17 0-11.8-3.5-17.8-10.3-17.8-6.9 0-10.3 6-10.3 17.8 0 6.2 2.9 12.3 6.5 17.1-1.6 1.6-3 2.5-3.7 2.7-1.6 0-2.8 1.3-2.8 2.8 0 1.6 1.3 2.8 2.8 2.8 2 0 4.7-1.6 7.5-4.1 2.8 2.6 5.5 4.1 7.5 4.1 1.6 0 2.9-1.3 2.9-2.8 0-1.6-1.2-2.9-2.8-2.9zm-12.3-19.7c0-8.2 1.5-12.2 4.7-12.2s4.7 4 4.7 12.2c0 4.6-2.2 9.1-4.7 12.6-2.5-3.5-4.7-8-4.7-12.6zm-3.8 47.7h-5.4v2c0 .3.1.5.2.8-.1.6-.2 1-.2 1v6.4c0 5.3 3.8 6.5 5.8 6.9.5 1.7 1.6 3.9 5.3 3.9h5.7c3.7 0 4.8-2.2 5.3-3.9 2-.3 5.8-1.6 5.8-6.9v-6.4c0-.4-.1-.8-.1-1.1.1-.2.1-.5.1-.7v-2h-22.5z"/><path class="st0" d="M890.7 203.2H786.9s-8.6 0-10 8.2v97c0 8.6 9.9 8.6 9.9 8.6h104.6s7.2 0 7.2-8.6v-97s.1-8.2-7.9-8.2zm-.3 105H785.1v-79.6h105.3v79.6z"/><path class="st1" d="M802.9 274.2c0 2.9 3.8 3 3.8 3h28.9c2.9 0 2.2-3 2.2-3v-28.6c0-2.9-2.2-2.5-2.2-2.5h-28.9c-2.9 0-3.8 2.5-3.8 2.5v28.6zm43.7 12.8c0 2.9 3.4 2.6 3.4 2.6h21.2c2.9 0 1.9-2.6 1.9-2.6v-8.6c0-2.9-1.9-3.1-1.9-3.1H850c-2.9 0-3.4 3.1-3.4 3.1v8.6zm3.4-13.9c-2.9 0-3.3-3-3.3-3v-20c0-2.9 3.1-2.9 3.1-2.9l23.2 22.9s.1 2.9-2.8 2.9c-2.9.1-20.2.1-20.2.1z"/><g class="st2"><path class="st3" d="M170.9 799.7c0 3.2-2.6 5.7-5.7 5.7H56.4c-3.2 0-5.7-2.6-5.7-5.7v-97c0-3.2 2.6-5.7 5.7-5.7h108.8c3.2 0 5.7 2.6 5.7 5.7v97z"/><path class="st4" d="M74.6 720.7v-.7c0-.1.1-.2.1-.4v-.1c.2-.7.6-1.5 1.2-2 .6-.6 1.3-1 2-1.2h.1c.1 0 .2-.1.4-.1h1.1l19.7.5c2.6.1 4.7 2.2 4.6 4.9-.1 2.6-2.2 4.7-4.9 4.6l-7.8-.2 15.4 15.4c1.9 1.9 1.9 4.9 0 6.7s-4.9 1.9-6.7 0l-15.4-15.4.2 7.8c.1 2.6-2 4.8-4.6 4.9-1.4 0-2.6-.5-3.5-1.4-.8-.8-1.4-2-1.4-3.3l-.5-19.7v-.1-.2zm44.3 32.9l15.4 15.4-.2-7.8c-.1-2.6 2-4.8 4.6-4.9 2.6-.1 4.8 2 4.9 4.6l.5 19.7v1.1c0 .1-.1.2-.1.4v.1c-.2.7-.6 1.5-1.2 2-.6.6-1.3 1-2 1.2h-.1c-.1 0-.2.1-.4.1h-1.1l-19.7-.5c-1.3 0-2.4-.6-3.3-1.4-.9-.9-1.4-2.1-1.4-3.5.1-2.6 2.2-4.7 4.9-4.6l7.8.2-15.4-15.4c-1.9-1.9-1.9-4.9 0-6.7s4.9-1.8 6.8 0z"/></g><g class="st2"><path class="st3" d="M151.6 620.9l-11.4-11.4c-1.5-1.5-3.9-1.5-5.4 0-.7.7-1.1 1.7-1.1 2.7s.4 1.9 1.1 2.7l4.3 4.3h-29.2s-3.2-.1-6.2-1.9c-3.8-2.2-5.6-6.2-5.6-12V580c0-.7-.1-6.7-4.7-12.8-7.4-9.9-20.5-12-30.1-12H50.4c-2.4 0-4.4 2-4.4 4.4s2 4.4 4.4 4.4h12.8c10.7 0 18.6 2.8 22.8 8.1 3.1 3.9 3.2 7.9 3.2 7.9v25.3c0 11.6 5.6 17.2 10.4 19.8 4.9 2.8 9.8 2.8 10.3 2.8h29.2l-4.3 4.3c-.7.7-1.1 1.7-1.1 2.7s.4 1.9 1.1 2.7c1.5 1.5 3.9 1.5 5.4 0l11.4-11.4c.7-.7 1.1-1.7 1.1-2.7 0-.9-.3-1.9-1.1-2.6z"/><path class="st4" d="M151.6 557.1l-11.4-11.4c-1.5-1.5-3.9-1.5-5.4 0-.7.7-1.1 1.7-1.1 2.7s.4 1.9 1.1 2.7l4.3 4.3h-52c3.9 2.1 7.5 4.9 10.4 8.8h41.6l-4.3 4.3c-.7.7-1.1 1.7-1.1 2.7s.4 1.9 1.1 2.7c1.5 1.5 3.9 1.5 5.4 0l11.4-11.4c.7-.7 1.1-1.7 1.1-2.7s-.3-1.9-1.1-2.7z"/></g><g class="st2"><path class="st4" d="M249.3 745.2v12.1c0 8.2 8.1 8.4 8.1 8.4h13.9v30c0 5.5 2.5 11 10.7 11s10.7-5.5 10.7-11v-30h13.9s8.1-.2 8.1-8.4v-12.1h-65.4zm32.8 53.2c-3 0-5.5-2.5-5.5-5.5s2.5-5.5 5.5-5.5 5.5 2.5 5.5 5.5-2.5 5.5-5.5 5.5z"/><path class="st3" d="M293 704s0-8.2-11-8.2-11 8.2-11 8.2-2.7-8.2-13.6-8.2c0 0-8.1 0-8.1 2.7v46.6h65.4v-46.6c0-2.7-8.1-2.7-8.1-2.7-10.9 0-13.6 8.2-13.6 8.2z"/><path class="st4" d="M268.4 745.2v-11s-.1-2.7 2.7-2.7c2.7 0 2.7 2.7 2.7 2.7v11h-5.4zm0-22v-5.5s-.1-2.7 2.7-2.7c2.7 0 2.7 2.7 2.7 2.7v5.5s.1 2.7-2.7 2.7c-2.8.1-2.7-2.7-2.7-2.7zm22-5.5v-8.2s-.1-2.7 2.7-2.7c2.7 0 2.7 2.7 2.7 2.7v8.2s.1 2.7-2.7 2.7c-2.8.1-2.7-2.7-2.7-2.7zm0 27.5v-16.5s-.1-2.7 2.7-2.7c2.7 0 2.7 2.7 2.7 2.7v16.5h-5.4z"/></g><g class="st2"><path class="st4" d="M286.2 265.6c-33.2 0-45.5-12.2-47.2-12.2v14c0 8.7 21.1 15.7 47.2 15.7s47.2-7 47.2-15.7v-14c-1.7 0-14 12.2-47.2 12.2z"/><path class="st4" d="M286.2 291.7c-33.2 0-45.5-12.2-47.2-12.2v14c0 8.7 21.1 15.7 47.2 15.7s47.2-7 47.2-15.7v-14c-1.7 0-14 12.2-47.2 12.2zm47.2-64.9c-1.3-8.8-21.9-15.8-47.2-15.8-25.3 0-45.9 7-47.2 15.8h-.1v14c0 8.7 21.1 15.7 47.2 15.7s47.2-7 47.2-15.7l.1-14zm-47.2-8.7c24.9 0 40.2 7 40.1 9.6.1 2.6-15.3 9.6-40.1 9.6s-40.2-7-40.1-9.6c-.1-2.6 15.2-9.6 40.1-9.6z"/></g><g class="st2"><path class="st4" d="M835.4 387.7c20.2 0 36.6 16.4 36.6 36.6s-16.4 36.6-36.6 36.6c-20.2 0-36.6-16.4-36.6-36.6s16.4-36.6 36.6-36.6m0-9.4c-25.4 0-46 20.6-46 46s20.6 46 46 46 46-20.6 46-46c.1-25.4-20.5-46-46-46z"/><path class="st3" d="M848.8 426.4c-3.4-5.9-5.5-16.4-17.3-9.6-11.7 6.8-3.7 13.9-.3 19.7 5.1 8.8 20.7 15.5 20.7 15.5s2-16.8-3.1-25.6zm-13.4 3.9c-2.4 0-4.4-1.9-4.4-4.4 0-2.4 1.9-4.4 4.4-4.4 2.4 0 4.4 1.9 4.4 4.4s-2 4.4-4.4 4.4z"/><path class="st4" d="M844.6 413.1c-3.4-5.9-25.3-16.7-25.3-16.7s-1.6 24.4 1.8 30.2c1.7 2.9 8.5 14.7 20.2 7.9 11.8-6.7 5-18.4 3.3-21.4zm-9.2 17.2c-2.4 0-4.4-1.9-4.4-4.4 0-2.4 1.9-4.4 4.4-4.4 2.4 0 4.4 1.9 4.4 4.4s-2 4.4-4.4 4.4z"/></g><path class="st1" d="M282.9 581.8c-1.9 0-3.4-1.5-3.4-3.4v-33.8c0-1.9 1.5-3.4 3.4-3.4s3.4 1.5 3.4 3.4v33.8c0 1.9-1.5 3.4-3.4 3.4z"/><path class="st0" d="M332 619c0 5-4 9-9 9h-81.8c-5 0-9-4-9-9v-40.6c0-5 4-9 9-9H323c5 0 9 4 9 9V619z"/><path class="st1" d="M257.5 615.1c-2.5 0-4.5-2-4.5-4.5v-21.4c0-2.5 2-4.5 4.5-4.5s4.5 2 4.5 4.5v21.4c0 2.5-2 4.5-4.5 4.5z"/><path class="st1" d="M268.2 604.4h-21.4c-2.5 0-4.5-2-4.5-4.5s2-4.5 4.5-4.5h21.4c2.5 0 4.5 2 4.5 4.5s-2 4.5-4.5 4.5z"/><circle class="st1" cx="298.7" cy="607.8" r="6.8"/><circle class="st1" cx="314.5" cy="592" r="6.8"/><g class="st2"><path class="st3" d="M166.2 256.2c2.2 2.2 2.2 5.6 0 7.8l-57.7 57.7c-2.2 2.2-5.6 2.2-7.8 0L43 264c-2.2-2.2-2.2-5.6 0-7.8l57.7-57.7c2.2-2.2 5.6-2.2 7.8 0l57.7 57.7z"/><path class="st4" d="M122.4 243.3l14.1 13.4.2.2.1.1c.1.1.1.2.2.2l.1.1c.1.1.1.2.2.3v.1c.4.7.6 1.4.6 2.3 0 .8-.2 1.6-.6 2.3v.1c-.1.1-.1.2-.2.3l-.1.1c-.1.1-.1.2-.2.2l-.1.1-.2.2-14.1 13.7c-1.9 1.8-4.9 1.7-6.7-.2-1.8-1.9-1.7-4.9.2-6.7l5.6-5.3H75.9c-2.6 0-4.7-2.1-4.7-4.7s2.1-4.7 4.7-4.7h45.6l-5.6-5.3c-1-.9-1.5-2.2-1.5-3.4s.4-2.3 1.3-3.2c1.8-1.9 4.8-2 6.7-.2z"/></g></svg>